<?xml version="1.0" encoding="UTF-8"?>
<svg width="313px" height="131px" viewBox="0 0 313 131" version="1.1" xmlns="http://www.w3.org/2000/svg" xmlns:xlink="http://www.w3.org/1999/xlink">
    <!-- Generator: Sketch 61 (89581) - https://sketch.com -->
    <title>Group</title>
    <desc>Created with Sketch.</desc>
    <g id="Page-1" stroke="none" stroke-width="1" fill="none" fill-rule="evenodd">
        <g id="Group" transform="translate(0.780015, 0.639000)">
            <path d="M65.7069848,128.229 C58.8899848,129.244 54.8869848,129.65 47.5149848,129.65 C14.9549848,129.65 -4.96401522,114.218 1.07598478,91.172 C7.12098478,68.114 35.1189848,52.689 67.6819848,52.689 C75.0559848,52.689 78.8429848,53.093 85.1249848,54.109 L80.7069848,70.963 C77.0529848,68.525 72.1939848,67.516 66.6689848,67.516 C48.4389848,67.516 38.0209848,78.376 34.6619848,91.172 C31.3119848,103.962 36.0429848,114.828 54.2669848,114.828 C59.7969848,114.828 65.1829848,113.81 70.1239848,111.375 L65.7069848,128.229" id="Fill-1" fill="#004C80"></path>
            <polyline id="Fill-2" fill="#004C80" points="76.0339848 128.89 90.7539848 72.711 114.700985 72.711 102.737985 118.381 126.687985 118.381 123.934985 128.89 76.0339848 128.89"></polyline>
            <polyline id="Fill-3" fill="#004C80" points="130.378985 128.89 145.101985 72.711 169.049985 72.711 154.333985 128.89 130.378985 128.89"></polyline>
            <polyline id="Fill-4" fill="#004C80" points="200.796985 72.711 219.402985 104.836 219.708985 104.836 228.123985 72.711 250.536985 72.711 235.816985 128.89 214.940985 128.89 196.331985 96.765 196.026985 96.765 187.609985 128.89 165.191985 128.89 179.914985 72.711 200.796985 72.711"></polyline>
            <polyline id="Fill-5" fill="#004C80" points="293.836985 83.214 281.866985 128.89 257.914985 128.89 269.885985 83.214 254.225985 83.214 256.972985 72.711 312.251985 72.711 309.495985 83.214 293.836985 83.214"></polyline>
            <path d="M294.063985,123.563 L294.519985,123.563 C295.147985,123.563 295.451985,123.753 295.451985,124.196 C295.451985,124.622 295.164985,124.801 294.571985,124.801 L294.063985,124.801 L294.063985,123.563 Z M293.024985,122.904 L293.024985,127.173 L294.063985,127.173 L294.063985,125.428 L294.571985,125.428 L295.386985,127.173 L296.541985,127.173 L295.590985,125.266 C296.172985,125.121 296.520985,124.695 296.520985,124.134 C296.520985,123.319 295.916985,122.904 294.696985,122.904 L293.024985,122.904 Z M294.616985,121.265 C293.225985,121.265 292.028985,121.948 291.339985,123.117 C290.964985,123.762 290.779985,124.429 290.779985,125.121 C290.779985,126.114 291.163985,127.067 291.881985,127.8 C292.624985,128.552 293.586985,128.961 294.616985,128.961 C295.607985,128.961 296.583985,128.572 297.332985,127.84 C298.064985,127.13 298.465985,126.18 298.465985,125.121 C298.465985,124.091 298.090985,123.141 297.381985,122.419 C296.636985,121.667 295.672985,121.265 294.616985,121.265 Z M294.628985,121.897 C295.513985,121.897 296.297985,122.229 296.924985,122.862 C297.525985,123.478 297.832985,124.25 297.832985,125.172 C297.832985,125.998 297.497985,126.804 296.892985,127.386 C296.260985,127.99 295.451985,128.328 294.616985,128.328 C293.765985,128.328 292.951985,127.979 292.338985,127.354 C291.730985,126.75 291.412985,125.958 291.412985,125.106 C291.412985,124.261 291.761985,123.436 292.391985,122.809 C292.996985,122.204 293.757985,121.897 294.628985,121.897 L294.628985,121.897 Z" id="Fill-6" fill="#004C80"></path>
            <path d="M173.983985,60.415 C173.370985,59.281 172.723985,58.145 172.026985,57.01 C164.905985,45.436 156.914985,39.682 153.043985,41.779 C149.732985,43.575 149.745985,50.898 153.647985,60.636 C156.742985,61.668 160.050985,62.234 163.489985,62.234 C167.173985,62.234 170.707985,61.59 173.983985,60.415" id="Fill-7" fill="#00A3DA"></path>
            <path d="M167.317985,27.251 C166.350985,33.281 176.302985,39.748 189.552985,41.695 C190.589985,41.849 191.615985,41.957 192.628985,42.05 C193.903985,38.647 194.606985,34.967 194.606985,31.117 C194.606985,27.117 193.843985,23.296 192.468985,19.784 C179.470985,18.02 168.276985,21.312 167.317985,27.251" id="Fill-8" fill="#00A3DA"></path>
            <path d="M150.199985,2.977 C149.663985,8.079 150.882985,11.357 154.299985,12.064 C159.972985,13.233 165.257985,7.888 171.959985,1.176 C169.261985,0.416 166.428985,0 163.489985,0 C158.734985,0 154.230985,1.071 150.199985,2.977" id="Fill-9" fill="#00A3DA"></path>
            <path d="M132.409985,32.549 C136.112985,30.916 138.497985,28.526 138.821985,25.64 C139.107985,23.086 137.732985,20.52 135.167985,18.242 C133.378985,22.166 132.376985,26.525 132.376985,31.117 C132.376985,31.6 132.390985,32.075 132.409985,32.549" id="Fill-10" fill="#00A3DA"></path>
            <path d="M158.403985,25.93 C159.539985,18.537 173.056985,14.478 188.591985,16.872 C189.549985,17.02 190.484985,17.193 191.410985,17.385 C187.995985,10.443 182.064985,4.972 174.814985,2.135 C174.785985,2.164 174.765985,2.196 174.741985,2.229 C165.722985,13.42 159.499985,22.796 152.051985,21.116 C146.804985,19.936 144.268985,14.386 144.733985,6.293 C142.027985,8.342 139.664985,10.822 137.748985,13.631 C144.330985,17.186 148.316985,21.99 147.811985,26.751 C147.261985,32.005 141.379985,35.904 133.015985,37.427 C135.048985,47.296 141.754985,55.45 150.719985,59.488 C142.002985,43.115 147.483985,35.011 147.483985,35.011 C148.912985,33.122 150.660985,32.326 151.978985,32.089 C153.212985,31.863 155.617985,31.772 158.787985,34.46 C165.686985,40.083 172.401985,51.572 176.033985,59.594 C182.913985,56.562 188.489985,51.107 191.676985,44.313 C189.351985,44.242 186.935985,44.028 184.469985,43.649 C168.934985,41.258 157.266985,33.326 158.403985,25.93" id="Fill-11" fill="#00A3DA"></path>
            <path d="M147.811985,26.751 C148.316985,21.99 144.330985,17.186 137.748985,13.631 C136.763985,15.085 135.897985,16.627 135.167985,18.242 C137.732985,20.52 139.107985,23.086 138.821985,25.64 C138.497985,28.526 136.112985,30.916 132.409985,32.549 C132.486985,34.213 132.689985,35.842 133.015985,37.427 C141.379985,35.904 147.261985,32.005 147.811985,26.751" id="Fill-12" fill="#FFFFFE"></path>
            <path d="M158.787985,34.46 C155.617985,31.772 153.212985,31.863 151.978985,32.089 C150.660985,32.326 148.912985,33.122 147.483985,35.011 C147.483985,35.011 142.002985,43.115 150.719985,59.488 C151.671985,59.92 152.651985,60.302 153.647985,60.636 C149.745985,50.898 149.732985,43.575 153.043985,41.779 C156.914985,39.682 164.905985,45.436 172.026985,57.01 C172.723985,58.145 173.370985,59.281 173.983985,60.415 C174.677985,60.167 175.361985,59.89 176.033985,59.594 C172.401985,51.572 165.686985,40.083 158.787985,34.46" id="Fill-13" fill="#FFFFFE"></path>
            <path d="M152.051985,21.116 C159.499985,22.796 165.722985,13.42 174.741985,2.229 C174.765985,2.196 174.785985,2.164 174.814985,2.135 C173.880985,1.771 172.928985,1.45 171.959985,1.176 C165.257985,7.888 159.972985,13.233 154.299985,12.064 C150.882985,11.357 149.663985,8.079 150.199985,2.977 C148.258985,3.897 146.427985,5.007 144.733985,6.293 C144.268985,14.386 146.804985,19.936 152.051985,21.116" id="Fill-14" fill="#FFFFFE"></path>
            <path d="M189.552985,41.695 C176.302985,39.748 166.350985,33.281 167.317985,27.251 C168.276985,21.312 179.470985,18.02 192.468985,19.784 C192.151985,18.967 191.801985,18.164 191.410985,17.385 C190.484985,17.193 189.549985,17.02 188.591985,16.872 C173.056985,14.478 159.539985,18.537 158.403985,25.93 C157.266985,33.326 168.934985,41.258 184.469985,43.649 C186.935985,44.028 189.351985,44.242 191.676985,44.313 C192.017985,43.572 192.340985,42.817 192.628985,42.05 C191.615985,41.957 190.589985,41.849 189.552985,41.695" id="Fill-15" fill="#FFFFFE"></path>
        </g>
    </g>
</svg>